<?xml version="1.0" standalone="no"?>
<!DOCTYPE svg PUBLIC "-//W3C//DTD SVG 20010904//EN"
 "http://www.w3.org/TR/2001/REC-SVG-20010904/DTD/svg10.dtd">
<svg version="1.0" xmlns="http://www.w3.org/2000/svg"
 width="16.000000pt" height="16.000000pt" viewBox="0 0 16.000000 16.000000"
 preserveAspectRatio="xMidYMid meet">
<metadata>
Created by potrace 1.11, written by Peter Selinger 2001-2013
</metadata>
<g transform="translate(0.000000,16.000000) scale(0.005333,-0.005333)"
fill="#000000" stroke="none">
<path d="M1195 1864 c-43 -209 -80 -389 -83 -401 -4 -20 0 -23 26 -23 34 0 34
0 52 93 l12 58 76 -3 c68 -3 77 -5 80 -23 2 -11 8 -44 13 -72 10 -51 12 -53
43 -53 20 0 48 11 74 31 l42 31 0 -156 0 -156 30 0 30 0 0 190 0 190 75 0 75
0 0 -190 0 -190 30 0 30 0 0 385 0 385 -30 0 -30 0 0 -170 0 -170 -75 0 -75 0
0 310 0 310 -30 0 -30 0 0 -302 c0 -274 -2 -307 -19 -343 -16 -35 -81 -109
-81 -93 0 16 -142 705 -148 722 -5 12 -36 -118 -87 -360z m116 -51 c16 -87 29
-163 29 -170 0 -9 -19 -13 -66 -13 l-66 0 5 28 c3 15 18 93 33 174 15 81 30
146 32 143 3 -2 17 -75 33 -162z"/>
</g>
</svg>
